<?xml version="1.0" encoding="UTF-8"?>
<!DOCTYPE svg PUBLIC "-//W3C//DTD SVG 1.1//EN" "http://www.w3.org/Graphics/SVG/1.1/DTD/svg11.dtd">
<!-- Creator: CorelDRAW -->
<svg xmlns="http://www.w3.org/2000/svg" xml:space="preserve" width="84.6666mm" height="84.6666mm" version="1.1" style="shape-rendering:geometricPrecision; text-rendering:geometricPrecision; image-rendering:optimizeQuality; fill-rule:evenodd; clip-rule:evenodd"
viewBox="0 0 8466.66 8466.66"
 xmlns:xlink="http://www.w3.org/1999/xlink"
 xmlns:xodm="http://www.corel.com/coreldraw/odm/2003">
 <defs>
  <style type="text/css">
   <![CDATA[
    .str0 {stroke:white;stroke-width:16.93;stroke-miterlimit:22.9256}
    .fil0 {fill:white}
   ]]>
  </style>
 </defs>
 <g id="Camada_x0020_1">
  <metadata id="CorelCorpID_0Corel-Layer"/>
  <g id="_2409004557152">
   <path class="fil0 str0" d="M5072.83 5840.08c28.67,29.91 40.66,54.55 101.32,53.05 286.71,-7.02 -68.23,-417.9 -68.26,-417.96 -89.59,-122.35 -172.94,-212.56 -248.03,-345.97l92.26 -136.07c292.81,107.53 505.89,220.49 869.38,260.64 390.59,43.13 380.26,-94.79 759.74,371.51 385.94,474.24 524.71,1365.33 273.89,1756.61 -413.51,-42.19 -534.95,-348.14 -679.96,-239.83 -176.38,131.75 85.78,173.39 11.34,732.69 -720.01,29.74 -1250.48,-351.88 -1522.89,-716.99 -344.6,-461.91 -501.96,-1030.19 -441.82,-1774.32 162.89,-40.9 276.14,-54.68 431.58,-107.5 81.66,75.87 205.93,271.23 281.7,372.06 50.71,67.49 92.81,143.13 139.75,192.08zm-3448.85 1541.03c-135.72,-221.33 -131.75,-733.63 -76.33,-1006.2 165.1,-811.84 1012.9,-1534.95 1843.37,-1623.72l224.88 380.32c-165.23,299.58 -449.37,488.73 -413.65,709.16 255.99,169.75 330.69,-290.96 623.47,-564.83 32.87,10.73 31.73,6.01 77.56,27.99l38.65 21.68c4.62,2.6 15.9,18.5 19.25,12.77 3.35,-5.78 12.97,8.68 19.18,13.43 -118.39,1203.97 261.51,1054.8 34.81,1483.29 -66.18,125.09 -144.65,250.17 -211.65,338.27 -267.43,351.68 -794.84,735.84 -1511.38,701.9 -68.78,-561.83 185.48,-603.57 12.22,-733.34 -145.69,-109.12 -270.38,200.01 -680.38,239.28zm2516.34 -3519.59c347.27,-75.09 680.1,211.39 726.26,504.37 61.3,388.91 -189.78,694.53 -503.36,750.34 -817.34,145.47 -1105.54,-1063.83 -222.9,-1254.71zm-3465.17 -994.79c247.31,-99.21 360.23,-260.34 845.39,-344.34 371.51,-64.29 709.84,8.1 1011.11,132.82 454.63,188.25 1078.04,693.01 1192.62,1134.28 -159.38,76.16 -164.19,163.41 -283.84,303.12 -237.43,-38.75 -605.04,-253.52 -819.29,-189.74l-5.17 160.06c95.02,73.63 586.15,221.47 750.67,264.51l-12.22 179.17c-366.97,93.39 -572.8,132.82 -884.18,315.25 -304.22,178.23 -286.73,292.33 -897.62,86.01 -538.67,-181.91 -1069.56,-723.95 -1158.82,-1232.48 107.76,-40.89 215.84,-82.14 337.8,-101.94 189.87,-30.85 240.58,25.07 370.54,-68.94 33.19,-259.18 -337.57,-234.11 -446.99,-637.78zm4278.51 1108.86c37.45,-103.4 183.56,-243.51 258.88,-347.23 545.2,-750.9 107.79,-720.96 792.15,-996.16 297.53,-119.66 646.48,-172.97 999.92,-101.94 268.38,53.93 656.99,204.24 799.14,366.54 -257.13,496.63 -481.78,341.45 -449.24,608.26 156.68,113.09 226.93,-10.99 708.02,171.11 -51.94,278.35 -262.88,571.76 -416.11,734.61 -197.87,210.29 -342.62,348.31 -681.53,475.34 -548.71,205.64 -1444.58,193.71 -1887.15,-121.8 39,-150.54 49.34,-263.07 32.31,-437.14 181.29,-47.69 638.03,-176.74 756.13,-264.7l-14.86 -159.12c-234.89,-72.62 -586.12,186.07 -835.54,181.35l-62.12 -109.12zm-990.34 -327.28c-94.75,-97.64 -168.51,-258.62 -244.51,-364.07 -254.36,-353.01 -579.85,-547.66 -615.05,-595.8 -164.03,-224.23 -101.78,-1038.32 142.28,-1466.85 113.58,-199.39 384.22,-528.88 579.68,-609.56 74.96,67.55 163.74,192.67 219.68,309.1 50.55,105.23 63,294.41 193.12,294.35 179.66,-0.07 105.03,-317.62 412.86,-602.54 179.54,80.88 467.58,422.81 576.31,612.45 331.27,577.83 287.42,1284.26 12.42,1880.3 -117.64,254.91 -309.5,532.61 -478.66,667.55 -133.08,-84.32 -218.51,-113.78 -401.74,-166.18l-21.3 -814.44 -212.88 10.53 -7.28 805.99 -154.93 39.17zm275.23 -2904.27c-154.6,-179.89 -265.05,-531.41 -534.27,-359.16 -195.98,125.44 -391.76,317.71 -522.08,497.67 -136.72,188.76 -273.41,426.09 -342.62,703.08 -93.81,375.45 -39.56,554.56 -43.13,920.22 -450.93,-156.68 -719.01,-321.65 -1324.25,-222.73 -440.78,72.03 -814.34,301.95 -1063.08,496.72 -16.81,267.34 190.35,399.99 273.67,556.45 -150.05,42.39 -283.65,76.97 -407.21,144.06 -156.09,84.78 -140.78,147.39 -79.9,324.74 269.54,785.13 798.45,1252.47 1711.72,1430.41 -76.49,166.37 -434.81,384.16 -589.99,1047.58 -91.18,389.82 -56.04,1057.82 150.96,1342.51 195.56,41.45 408.11,-59.81 577.73,-113.64 -13.2,197.41 -9.26,407.5 43.85,570.74 380,149.79 1059.84,-99.11 1346.06,-258.94 498.22,-278.29 709.93,-781.03 802.54,-875.66 128.01,139.59 313.27,613.33 819.94,885.8 280.83,151.03 953.06,399.15 1327.98,248.25 53.15,-162.98 56.76,-372.81 43.85,-569.83 176.19,55.39 355.14,143.45 560.41,118.87 223.22,-109.61 424.31,-1460.15 -243.5,-2173.63 -89.56,-95.7 -129.86,-111.3 -179.18,-222.05 911.38,-168.68 1459.99,-662.02 1719.91,-1451.89 95.38,-289.8 -68.65,-329.88 -493.67,-447.45 83.96,-156.1 289.5,-290.19 273.57,-556.32 -499.17,-393.74 -1134.53,-637.9 -1835.37,-471.24 -229.33,54.55 -370.44,140.2 -551.92,197.35 -1.37,-377.21 50.87,-558.17 -48.86,-941.97 -118.71,-456.98 -486,-956.66 -876.08,-1190.25 -250.72,-150.15 -375.67,205.54 -517.08,370.31z"/>
   <path class="fil0 str0" d="M2838.7 6343.7c128.14,72.1 166.83,50.91 257.68,-70.99 117.02,-156.97 61.89,-244.61 -136.82,-236.19 -58.67,76.59 -137.3,161.75 -120.86,307.18z"/>
   <path class="fil0 str0" d="M6086.05 3780.06c-56.95,340.34 308.84,142.54 340.7,93.23 156.84,-242.95 -219.65,-173.65 -340.7,-93.23z"/>
   <path class="fil0 str0" d="M2390.93 3780.29c-121.02,-80.49 -497.9,-150.41 -340.67,93.03 31.73,49.12 397.1,246.99 340.67,-93.03z"/>
   <path class="fil0 str0" d="M5638.18 6343.48c16.61,-146.12 -61.7,-228.81 -119.88,-307.74l-153.08 0.68c-85.72,182.82 66.87,424.11 272.96,307.06z"/>
   <path class="fil0 str0" d="M4120.13 2351.8c-0.13,84.91 13.43,134.9 43.95,184.99l148.85 8.68c181.29,-349.63 -192.24,-558.06 -192.8,-193.67z"/>
  </g>
 </g>
</svg>
